<svg width="38" height="48" viewBox="0 0 38 48" fill="none" xmlns="http://www.w3.org/2000/svg">
<path d="M31.2365 25.4741L31.2365 25.4742C31.2707 29.1917 32.8959 31.6836 34.5214 33.2414C35.3312 34.0174 36.1403 34.5614 36.7522 34.9141C37.0006 35.0572 37.2171 35.1692 37.3891 35.2527C37.063 36.2369 36.1271 38.7775 34.3568 41.3831L34.7704 41.6641L34.3568 41.3831C33.3795 42.8216 32.4177 44.2042 31.3187 45.239C30.2295 46.2645 29.0428 46.9125 27.617 46.939C26.2003 46.9653 25.2656 46.5582 24.2013 46.0947L24.1426 46.0691C23.0389 45.5886 21.8167 45.0727 19.924 45.0727C18.0385 45.0727 16.7931 45.5548 15.675 46.0309C15.5994 46.0631 15.5245 46.0952 15.4503 46.127C14.4357 46.5616 13.5372 46.9465 12.259 46.9973C10.9168 47.0484 9.68991 46.3756 8.52132 45.2725C7.35219 44.169 6.30509 42.6955 5.32164 41.2651C3.35877 38.4072 1.61828 34.3522 0.877952 30.1303C0.136915 25.9044 0.407961 21.5744 2.38557 18.1161C4.34726 14.687 7.84213 12.5324 11.6155 12.4771L11.6178 12.4771C13.0162 12.4502 14.3988 12.9247 15.7159 13.442C15.8856 13.5087 16.0553 13.5765 16.224 13.6439C16.6956 13.8322 17.1593 14.0175 17.5917 14.1654C18.1782 14.366 18.765 14.5195 19.3105 14.5195C19.8658 14.5195 20.4992 14.333 21.1419 14.101C21.4958 13.9733 21.8925 13.8158 22.3025 13.6531C22.6255 13.525 22.9567 13.3935 23.2816 13.2708C24.8186 12.6902 26.4988 12.1892 28.1936 12.3621L28.2085 12.3637L28.2234 12.3643C29.6337 12.4234 33.4586 12.9222 36.0699 16.3929C34.7816 17.288 31.1898 20.2365 31.2365 25.4741ZM25.477 7.68714L25.477 7.68725C24.0067 9.48067 21.6754 10.8554 19.3954 10.8503C19.2415 8.4655 20.4219 5.98748 21.7956 4.38788L21.7975 4.38564C23.2888 2.62828 25.7351 1.29252 27.8315 1.03876C27.9446 3.46997 26.9439 5.89898 25.477 7.68714Z" fill="#F2F4F7"/>
<path d="M31.2365 25.4741L31.2365 25.4742C31.2707 29.1917 32.8959 31.6836 34.5214 33.2414C35.3312 34.0174 36.1403 34.5614 36.7522 34.9141C37.0006 35.0572 37.2171 35.1692 37.3891 35.2527C37.063 36.2369 36.1271 38.7775 34.3568 41.3831L34.7704 41.6641L34.3568 41.3831C33.3795 42.8216 32.4177 44.2042 31.3187 45.239C30.2295 46.2645 29.0428 46.9125 27.617 46.939C26.2003 46.9653 25.2656 46.5582 24.2013 46.0947L24.1426 46.0691C23.0389 45.5886 21.8167 45.0727 19.924 45.0727C18.0385 45.0727 16.7931 45.5548 15.675 46.0309C15.5994 46.0631 15.5245 46.0952 15.4503 46.127C14.4357 46.5616 13.5372 46.9465 12.259 46.9973C10.9168 47.0484 9.68991 46.3756 8.52132 45.2725C7.35219 44.169 6.30509 42.6955 5.32164 41.2651C3.35877 38.4072 1.61828 34.3522 0.877952 30.1303C0.136915 25.9044 0.407961 21.5744 2.38557 18.1161C4.34726 14.687 7.84213 12.5324 11.6155 12.4771L11.6178 12.4771C13.0162 12.4502 14.3988 12.9247 15.7159 13.442C15.8856 13.5087 16.0553 13.5765 16.224 13.6439C16.6956 13.8322 17.1593 14.0175 17.5917 14.1654C18.1782 14.366 18.765 14.5195 19.3105 14.5195C19.8658 14.5195 20.4992 14.333 21.1419 14.101C21.4958 13.9733 21.8925 13.8158 22.3025 13.6531C22.6255 13.525 22.9567 13.3935 23.2816 13.2708C24.8186 12.6902 26.4988 12.1892 28.1936 12.3621L28.2085 12.3637L28.2234 12.3643C29.6337 12.4234 33.4586 12.9222 36.0699 16.3929C34.7816 17.288 31.1898 20.2365 31.2365 25.4741ZM25.477 7.68714L25.477 7.68725C24.0067 9.48067 21.6754 10.8554 19.3954 10.8503C19.2415 8.4655 20.4219 5.98748 21.7956 4.38788L21.7975 4.38564C23.2888 2.62828 25.7351 1.29252 27.8315 1.03876C27.9446 3.46997 26.9439 5.89898 25.477 7.68714Z" stroke="black"/>
<path d="M31.2365 25.4741L31.2365 25.4742C31.2707 29.1917 32.8959 31.6836 34.5214 33.2414C35.3312 34.0174 36.1403 34.5614 36.7522 34.9141C37.0006 35.0572 37.2171 35.1692 37.3891 35.2527C37.063 36.2369 36.1271 38.7775 34.3568 41.3831L34.7704 41.6641L34.3568 41.3831C33.3795 42.8216 32.4177 44.2042 31.3187 45.239C30.2295 46.2645 29.0428 46.9125 27.617 46.939C26.2003 46.9653 25.2656 46.5582 24.2013 46.0947L24.1426 46.0691C23.0389 45.5886 21.8167 45.0727 19.924 45.0727C18.0385 45.0727 16.7931 45.5548 15.675 46.0309C15.5994 46.0631 15.5245 46.0952 15.4503 46.127C14.4357 46.5616 13.5372 46.9465 12.259 46.9973C10.9168 47.0484 9.68991 46.3756 8.52132 45.2725C7.35219 44.169 6.30509 42.6955 5.32164 41.2651C3.35877 38.4072 1.61828 34.3522 0.877952 30.1303C0.136915 25.9044 0.407961 21.5744 2.38557 18.1161C4.34726 14.687 7.84213 12.5324 11.6155 12.4771L11.6178 12.4771C13.0162 12.4502 14.3988 12.9247 15.7159 13.442C15.8856 13.5087 16.0553 13.5765 16.224 13.6439C16.6956 13.8322 17.1593 14.0175 17.5917 14.1654C18.1782 14.366 18.765 14.5195 19.3105 14.5195C19.8658 14.5195 20.4992 14.333 21.1419 14.101C21.4958 13.9733 21.8925 13.8158 22.3025 13.6531C22.6255 13.525 22.9567 13.3935 23.2816 13.2708C24.8186 12.6902 26.4988 12.1892 28.1936 12.3621L28.2085 12.3637L28.2234 12.3643C29.6337 12.4234 33.4586 12.9222 36.0699 16.3929C34.7816 17.288 31.1898 20.2365 31.2365 25.4741ZM25.477 7.68714L25.477 7.68725C24.0067 9.48067 21.6754 10.8554 19.3954 10.8503C19.2415 8.4655 20.4219 5.98748 21.7956 4.38788L21.7975 4.38564C23.2888 2.62828 25.7351 1.29252 27.8315 1.03876C27.9446 3.46997 26.9439 5.89898 25.477 7.68714Z" stroke="black" stroke-opacity="0.2"/>
</svg>
